<?xml version="1.0" encoding="iso-8859-1"?>
<!-- Generator: Adobe Illustrator 19.0.0, SVG Export Plug-In . SVG Version: 6.00 Build 0)  -->
<svg version="1.1" id="Layer_1" xmlns="http://www.w3.org/2000/svg" xmlns:xlink="http://www.w3.org/1999/xlink" x="0px" y="0px"
	 viewBox="0 0 512 512" style="enable-background:new 0 0 512 512;" xml:space="preserve">
<circle style="fill:#273B7A;" cx="256" cy="256" r="256"/>
<path style="fill:#121149;" d="M362.667,228.417H199.111v131.074l-96.732,8.628l143.669,143.669c3.303,0.126,6.618,0.21,9.952,0.21
	c141.152,0,255.614-114.238,255.991-255.3L408.86,153.567l-44.52,15.027L362.667,228.417z"/>
<path style="fill:#FFC61B;" d="M391.297,339.332L370.5,169.937l-22.242,2.731l6.103,49.716h-155.25
	c-2.857,0-5.172,2.315-5.172,5.172v113.778c0,2.857,2.315,5.172,5.172,5.172c2.857,0,5.172-2.315,5.172-5.172V232.727h151.349
	l13.424,109.335L391.297,339.332z"/>
<polygon style="fill:#EAA22F;" points="370.5,169.937 348.258,172.668 354.361,222.384 257.15,222.384 257.15,232.727 
	355.631,232.727 369.055,342.063 391.297,339.332 "/>
<path style="fill:#E09112;" d="M107.086,369.778h297.829c4.158,0,7.53-3.372,7.53-7.53v-41.113c0-4.429-3.801-7.901-8.211-7.499
	l-297.829,27.076c-3.879,0.353-6.849,3.605-6.849,7.499v14.038C99.556,366.406,102.928,369.778,107.086,369.778z"/>
<g>
	<path style="fill:#FF5419;" d="M404.233,313.635L257.15,327.006v42.772h147.765c4.158,0,7.53-3.372,7.53-7.53v-41.113
		C412.444,316.707,408.642,313.235,404.233,313.635z"/>
	<path style="fill:#FF5419;" d="M329.102,199.111h67.127c8.954,0,16.213-7.259,16.213-16.213v-19.18
		c0-10.773-10.311-18.549-20.668-15.591l-67.127,19.178c-6.961,1.989-11.76,8.351-11.76,15.591l0,0
		C312.889,191.852,320.148,199.111,329.102,199.111z"/>
</g>
<g>
</g>
<g>
</g>
<g>
</g>
<g>
</g>
<g>
</g>
<g>
</g>
<g>
</g>
<g>
</g>
<g>
</g>
<g>
</g>
<g>
</g>
<g>
</g>
<g>
</g>
<g>
</g>
<g>
</g>
</svg>
